<?xml version="1.0" encoding="utf-8"?>
<!-- Generator: Adobe Illustrator 22.0.0, SVG Export Plug-In . SVG Version: 6.00 Build 0)  -->
<svg xmlns="http://www.w3.org/2000/svg" xmlns:xlink="http://www.w3.org/1999/xlink" version="1.1" id="Layer_1" x="0px" y="0px" viewBox="0 0 256 256" style="enable-background:new 0 0 256 256;" xml:space="preserve" width="512" height="512">
<style type="text/css">
	.st0{fill:#3A312A;}
	.st1{fill:#D7E057;}
	.st2{fill:#8AC6DD;}
	.st3{fill:#87796F;}
	.st4{fill:#B9C239;}
	.st5{fill:#6CA8BF;}
	.st6{fill:#FCE8CB;}
	.st7{fill:#B9BC39;}
	.st8{fill:#68A8BC;}
	.st9{fill:#F16C7A;}
	.st10{fill:#D34E5C;}
	.st11{fill-rule:evenodd;clip-rule:evenodd;fill:#87796F;}
	.st12{fill:#DECAAD;}
	.st13{fill:#695B51;}
	.st14{fill:#6B5B51;}
	.st15{fill-rule:evenodd;clip-rule:evenodd;fill:#FCE8CB;}
	.st16{fill:#F5978A;}
</style>
<g>
	<g>
		<g>
			<path class="st1" d="M156.623,16.745H98.267c-10.565,0-19.13,8.565-19.13,19.13v1.11c0,10.565,8.565,19.13,19.13,19.13h58.356     c10.565,0,19.13-8.565,19.13-19.13v-1.11C175.753,25.31,167.188,16.745,156.623,16.745z"/>
		</g>
	</g>
	<g>
		<g>
			<path class="st0" d="M156.623,15.246h-25.011c-0.829,0-1.5,0.671-1.5,1.5s0.671,1.5,1.5,1.5h25.011     c9.721,0,17.63,7.909,17.63,17.63v1.109c0,9.721-7.909,17.63-17.63,17.63H98.267c-9.721,0-17.63-7.909-17.63-17.63v-1.109     c0-9.721,7.909-17.63,17.63-17.63h17.011c0.829,0,1.5-0.671,1.5-1.5s-0.671-1.5-1.5-1.5H98.267     c-11.376,0-20.63,9.254-20.63,20.63v1.109c0,11.375,9.254,20.63,20.63,20.63h58.356c11.375,0,20.63-9.255,20.63-20.63v-1.109     C177.253,24.5,167.998,15.246,156.623,15.246z"/>
		</g>
	</g>
	<g>
		<g>
			<rect x="98.23" y="56.115" class="st3" width="10.763" height="10.05"/>
		</g>
	</g>
	<g>
		<g>
			<path class="st0" d="M108.993,54.615H98.23c-0.829,0-1.5,0.671-1.5,1.5v10.05c0,0.829,0.671,1.5,1.5,1.5h10.763     c0.829,0,1.5-0.671,1.5-1.5v-10.05C110.493,55.287,109.822,54.615,108.993,54.615z M107.493,64.666H99.73v-7.05h7.763V64.666z"/>
		</g>
	</g>
	<g>
		<g>
			<rect x="145.897" y="56.115" class="st3" width="10.763" height="10.05"/>
		</g>
	</g>
	<g>
		<g>
			<path class="st0" d="M156.66,54.615h-10.763c-0.829,0-1.5,0.671-1.5,1.5v10.05c0,0.829,0.671,1.5,1.5,1.5h10.763     c0.829,0,1.5-0.671,1.5-1.5v-10.05C158.16,55.287,157.488,54.615,156.66,54.615z M155.16,64.666h-7.763v-7.05h7.763V64.666z"/>
		</g>
	</g>
	<g>
		<g>
			<path class="st2" d="M206.702,85.924c-7.331-12.233-20.545-19.72-34.807-19.72H82.959c-14.242,0-27.442,7.467-34.779,19.674     l-0.011,0.018c-5.304,8.824-7.055,19.334-4.899,29.401l16.735,78.147h134.88l16.694-78.19     C213.723,105.213,211.98,94.732,206.702,85.924z"/>
		</g>
	</g>
	<g>
		<g>
			<path class="st0" d="M207.989,85.153C200.43,72.54,186.6,64.704,171.895,64.704H82.959c-14.682,0-28.501,7.817-36.075,20.419     c-5.52,9.184-7.324,20.011-5.081,30.488l16.735,78.147c0.148,0.692,0.759,1.186,1.467,1.186h134.88     c0.707,0,1.319-0.495,1.467-1.187l16.694-78.19C215.276,105.119,213.48,94.317,207.989,85.153z M210.112,114.941l-16.441,77.003     H61.218l-16.481-76.961c-2.083-9.73-0.408-19.786,4.729-28.332c7.024-11.687,19.858-18.947,33.493-18.947h88.936     c13.656,0,26.5,7.277,33.52,18.991C210.516,95.206,212.184,105.237,210.112,114.941z"/>
		</g>
	</g>
	<g>
		<g>
			<path class="st1" d="M174.406,106.834c-4.349-7.261-12.191-11.705-20.655-11.705h-52.656c-8.451,0-16.283,4.431-20.637,11.674     l-0.005,0.009c-3.135,5.217-4.179,11.428-2.92,17.383l14.641,69.254h70.56l14.577-69.286     C178.561,118.227,177.523,112.038,174.406,106.834z"/>
		</g>
	</g>
	<g>
		<g>
			<path class="st0" d="M175.693,106.063c-4.594-7.669-13.001-12.434-21.942-12.434h-52.656c-8.925,0-17.325,4.752-21.927,12.41     c-3.342,5.56-4.444,12.118-3.102,18.466l14.641,69.254c0.147,0.694,0.759,1.19,1.468,1.19h70.56c0.709,0,1.322-0.497,1.468-1.191     l14.577-69.286C180.111,118.146,179.015,111.608,175.693,106.063z M175.844,123.854     C175.844,123.854,175.844,123.854,175.844,123.854l-14.327,68.095H93.391l-14.389-68.064c-1.185-5.604-0.212-11.392,2.743-16.309     c4.058-6.753,11.473-10.947,19.351-10.947h52.656c7.892,0,15.313,4.206,19.369,10.976     C176.051,112.499,177.019,118.271,175.844,123.854z"/>
		</g>
	</g>
	<g>
		<g>
			<path class="st1" d="M225.945,26.317c-0.974,11.564-13.024,13.39-13.024,13.39c10.347,0.487,12.925,14.059,12.925,14.059     c0.221-9.677,13.321-14.202,13.321-14.202C229.354,38.976,225.945,26.317,225.945,26.317z"/>
		</g>
	</g>
	<g>
		<g>
			<path class="st0" d="M239.257,38.066c-8.605-0.515-11.833-12.024-11.864-12.141c-0.19-0.702-0.852-1.158-1.583-1.102     c-0.725,0.066-1.298,0.642-1.359,1.367c-0.86,10.215-11.313,11.964-11.754,12.033c-0.763,0.115-1.313,0.79-1.273,1.561     c0.04,0.77,0.657,1.384,1.428,1.421c9.028,0.425,11.499,12.718,11.522,12.842c0.137,0.711,0.759,1.217,1.472,1.217     c0.042,0,0.084-0.001,0.126-0.005c0.764-0.064,1.357-0.693,1.374-1.459c0.195-8.509,12.192-12.777,12.313-12.819     c0.675-0.235,1.092-0.914,0.994-1.623C240.555,38.65,239.971,38.109,239.257,38.066z M225.691,48.412     c-1.356-3.13-3.709-6.907-7.587-8.876c2.931-1.405,6.409-3.913,8.202-8.272c1.551,3.071,4.2,6.88,8.334,8.722     C231.633,41.625,227.717,44.391,225.691,48.412z"/>
		</g>
	</g>
	<g>
		<g>
			<path class="st1" d="M204.247,43.298c-0.689,8.179-9.212,9.471-9.212,9.471c7.318,0.344,9.142,9.944,9.142,9.944     c0.156-6.845,9.422-10.045,9.422-10.045C206.657,52.252,204.247,43.298,204.247,43.298z"/>
		</g>
	</g>
	<g>
		<g>
			<path class="st0" d="M213.688,51.169c-5.766-0.345-7.973-8.186-7.994-8.265c-0.191-0.702-0.855-1.167-1.582-1.102     c-0.726,0.065-1.299,0.643-1.36,1.368c-0.579,6.871-7.647,8.067-7.942,8.114c-0.763,0.115-1.313,0.79-1.273,1.561     c0.04,0.77,0.657,1.384,1.428,1.421c6.035,0.284,7.723,8.644,7.739,8.726c0.135,0.713,0.759,1.22,1.473,1.22     c0.041,0,0.082-0.001,0.124-0.005c0.765-0.063,1.358-0.693,1.376-1.461c0.131-5.709,8.331-8.634,8.413-8.662     c0.676-0.234,1.094-0.913,0.996-1.622C214.987,51.754,214.403,51.212,213.688,51.169z M204.103,57.965     c-0.924-1.886-2.34-3.948-4.447-5.28c1.855-1.041,3.697-2.63,4.871-4.916c1.057,1.874,2.654,3.954,4.941,5.224     C207.619,54.093,205.48,55.732,204.103,57.965z"/>
		</g>
	</g>
	<g>
		<g>
			<path class="st1" d="M204.247,16.64c-0.689,8.179-9.212,9.471-9.212,9.471c7.318,0.344,9.142,9.944,9.142,9.944     c0.156-6.845,9.422-10.045,9.422-10.045C206.657,25.594,204.247,16.64,204.247,16.64z"/>
		</g>
	</g>
	<g>
		<g>
			<path class="st0" d="M213.688,24.512c-5.766-0.345-7.972-8.185-7.994-8.264c-0.191-0.702-0.855-1.168-1.582-1.102     c-0.726,0.065-1.299,0.643-1.36,1.368c-0.579,6.871-7.647,8.067-7.942,8.114c-0.763,0.115-1.313,0.79-1.273,1.561     c0.04,0.77,0.657,1.384,1.428,1.421c6.035,0.284,7.723,8.643,7.739,8.725c0.135,0.713,0.759,1.22,1.472,1.22     c0.042,0,0.083-0.001,0.125-0.005c0.765-0.063,1.358-0.693,1.376-1.461c0.131-5.709,8.332-8.634,8.413-8.662     c0.677-0.234,1.094-0.913,0.996-1.622C214.987,25.096,214.403,24.555,213.688,24.512z M204.103,31.307     c-0.924-1.886-2.34-3.947-4.447-5.28c1.855-1.041,3.697-2.63,4.871-4.917c1.057,1.874,2.654,3.955,4.941,5.224     C207.619,27.435,205.48,29.075,204.103,31.307z"/>
		</g>
	</g>
	<g>
		<g>
			<path class="st2" d="M198.601,193.441H56.289c-5.978,0-10.825,4.846-10.825,10.825v9.068c0,14.374,11.653,26.027,26.027,26.027     h111.908c14.374,0,26.027-11.653,26.027-26.027v-9.068C209.426,198.287,204.579,193.441,198.601,193.441z"/>
		</g>
	</g>
	<g>
		<g>
			<path class="st0" d="M198.601,191.941H56.289c-6.796,0-12.325,5.529-12.325,12.325v9.067c0,15.178,12.349,27.527,27.527,27.527     h18.295c0.829,0,1.5-0.671,1.5-1.5c0-0.829-0.671-1.5-1.5-1.5H71.491c-13.524,0-24.527-11.003-24.527-24.527v-9.067     c0-5.142,4.183-9.325,9.325-9.325h142.311c5.142,0,9.325,4.183,9.325,9.325v9.067c0,13.524-11.003,24.527-24.527,24.527h-80.356     c-0.829,0-1.5,0.671-1.5,1.5c0,0.829,0.671,1.5,1.5,1.5h80.356c15.178,0,27.527-12.349,27.527-27.527v-9.067     C210.926,197.47,205.396,191.941,198.601,191.941z"/>
		</g>
	</g>
	<g>
		<g>
			<circle class="st6" cx="28.915" cy="140.629" r="13"/>
		</g>
	</g>
	<g>
		<g>
			<path class="st0" d="M28.915,126.129c-7.995,0-14.5,6.505-14.5,14.5c0,7.995,6.505,14.5,14.5,14.5c7.995,0,14.5-6.505,14.5-14.5     C43.415,132.634,36.91,126.129,28.915,126.129z M28.915,152.129c-6.341,0-11.5-5.159-11.5-11.5c0-6.341,5.159-11.5,11.5-11.5     c6.341,0,11.5,5.159,11.5,11.5C40.415,146.97,35.256,152.129,28.915,152.129z"/>
		</g>
	</g>
	<g>
		<g>
			<circle class="st6" cx="23.915" cy="100.629" r="8"/>
		</g>
	</g>
	<g>
		<g>
			<path class="st0" d="M23.915,91.129c-5.238,0-9.5,4.262-9.5,9.5c0,5.238,4.262,9.5,9.5,9.5c5.238,0,9.5-4.262,9.5-9.5     C33.415,95.391,29.153,91.129,23.915,91.129z M23.915,107.129c-3.584,0-6.5-2.916-6.5-6.5s2.916-6.5,6.5-6.5     c3.584,0,6.5,2.916,6.5,6.5S27.499,107.129,23.915,107.129z"/>
		</g>
	</g>
	<g>
		<g>
			<path class="st6" d="M115.183,140.385c0.039-0.554,0.085-1.107,0.085-1.672c0.005-13.138-10.642-23.792-23.781-23.797     c-11.61-0.004-21.266,8.314-23.362,19.314c-1.198-0.324-2.452-0.513-3.753-0.513c-7.944-0.003-14.386,6.435-14.389,14.379     c-0.001,2.876,0.851,5.549,2.305,7.797c-7.47,0.519-13.374,6.726-13.377,14.328c-0.003,7.944,6.435,14.386,14.379,14.389     c5.072,0.002,9.523-2.628,12.085-6.593c3.653,3.398,8.534,5.494,13.917,5.496c10.782,0.004,19.6-8.335,20.398-18.914     c2.252,1.465,4.935,2.326,7.823,2.326c7.944,0.003,14.386-6.435,14.389-14.379C121.904,147.422,119.217,142.934,115.183,140.385z     "/>
		</g>
	</g>
	<g>
		<g>
			<path class="st0" d="M116.738,139.624c0.018-0.301,0.03-0.604,0.03-0.91c0.002-6.755-2.626-13.106-7.401-17.884     c-4.775-4.778-11.125-7.41-17.879-7.413h-0.009c-11.602,0-21.666,7.913-24.493,19.027c-0.876-0.15-1.751-0.227-2.613-0.227     h-0.005c-8.755,0-15.881,7.122-15.884,15.879c-0.001,2.297,0.496,4.549,1.45,6.621c-7.177,1.554-12.52,7.974-12.522,15.504     c-0.003,8.758,7.12,15.886,15.878,15.89h0.005c4.834,0,9.333-2.175,12.337-5.893c3.885,3.102,8.675,4.793,13.66,4.795h0.007     c10.647-0.001,19.727-7.757,21.597-18.039c2.069,0.954,4.32,1.451,6.616,1.452h0.005c8.755-0.001,15.881-7.123,15.885-15.879     C123.404,147.376,120.929,142.61,116.738,139.624z M107.518,165.426h-0.004c-2.488-0.001-4.91-0.722-7.005-2.084     c-0.444-0.29-1.008-0.322-1.483-0.087c-0.475,0.235-0.791,0.704-0.831,1.232c-0.742,9.83-9.04,17.527-18.896,17.527h-0.006     c-4.787-0.002-9.367-1.811-12.896-5.094c-0.325-0.303-0.772-0.448-1.207-0.39c-0.44,0.055-0.834,0.301-1.075,0.674     c-2.391,3.7-6.436,5.908-10.821,5.908h-0.004c-7.104-0.002-12.882-5.785-12.879-12.889c0.002-6.729,5.265-12.366,11.98-12.832     c0.529-0.037,1-0.351,1.237-0.826c0.238-0.475,0.206-1.04-0.082-1.485c-1.352-2.09-2.065-4.505-2.064-6.982     c0.002-7.103,5.782-12.88,12.884-12.88h0.004c1.1,0.001,2.231,0.156,3.362,0.461c0.402,0.109,0.834,0.045,1.187-0.177     c0.354-0.222,0.6-0.581,0.678-0.991c1.998-10.486,11.199-18.094,21.88-18.094h0.008c5.954,0.002,11.55,2.322,15.758,6.533     c4.208,4.211,6.525,9.809,6.523,15.763c0,0.455-0.033,0.901-0.065,1.348l-0.016,0.218c-0.039,0.551,0.228,1.079,0.695,1.374     c3.771,2.383,6.022,6.455,6.021,10.893C120.4,159.649,114.62,165.426,107.518,165.426z"/>
		</g>
	</g>
	<g>
		<g>
			<path class="st9" d="M94.604,81.129h-0.12c-4.318,0-7.818,3.5-7.818,7.818v82.613c0,4.318,3.5,7.818,7.818,7.818h0.12     c4.318,0,7.818-3.5,7.818-7.818V88.948C102.422,84.63,98.922,81.129,94.604,81.129z"/>
		</g>
	</g>
	<g>
		<g>
			<path class="st0" d="M94.603,79.629h-0.12c-5.138,0-9.318,4.18-9.318,9.318v82.613c0,5.138,4.18,9.318,9.318,9.318h0.12     c5.138,0,9.318-4.18,9.318-9.318V88.947C103.922,83.809,99.742,79.629,94.603,79.629z M100.922,171.561     c0,3.484-2.834,6.318-6.318,6.318h-0.12c-3.484,0-6.318-2.835-6.318-6.318V88.947c0-3.484,2.834-6.318,6.318-6.318h0.12     c3.484,0,6.318,2.835,6.318,6.318V171.561z"/>
		</g>
	</g>
	<g>
		<g>
			<path class="st3" d="M115.655,122.139c0.69,1.44,1.07,3.05,1.07,4.75v6.73c0,1.7-0.38,3.31-1.07,4.75h124.43v-16.23H115.655z"/>
		</g>
	</g>
	<g>
		<g>
			<path class="st0" d="M240.085,120.639h-124.43c-0.516,0-0.995,0.265-1.27,0.701c-0.274,0.437-0.306,0.983-0.083,1.448     c0.612,1.277,0.923,2.657,0.923,4.102v6.73c0,1.444-0.311,2.824-0.923,4.102c-0.223,0.465-0.191,1.011,0.083,1.448     c0.275,0.436,0.754,0.701,1.27,0.701h124.43c0.829,0,1.5-0.671,1.5-1.5v-16.23C241.585,121.311,240.914,120.639,240.085,120.639z      M238.585,136.869H117.803c0.28-1.049,0.422-2.135,0.422-3.25v-6.73c0-1.115-0.142-2.201-0.422-3.25h120.782V136.869z"/>
		</g>
	</g>
	<g>
		<g>
			<path class="st9" d="M105.69,115.849h-3.268v28.811h3.268c6.096,0,11.038-4.942,11.038-11.038v-6.735     C116.728,120.79,111.786,115.849,105.69,115.849z"/>
		</g>
	</g>
	<g>
		<g>
			<path class="st0" d="M105.69,114.349h-3.269c-0.829,0-1.5,0.671-1.5,1.5v28.811c0,0.829,0.671,1.5,1.5,1.5h3.269     c6.913,0,12.538-5.624,12.538-12.538v-6.735C118.228,119.973,112.603,114.349,105.69,114.349z M115.228,133.622     c0,5.259-4.278,9.538-9.538,9.538h-1.769v-25.811h1.769c5.259,0,9.538,4.279,9.538,9.538V133.622z"/>
		</g>
	</g>
	<g>
		<g>
			<path class="st4" d="M156.625,18.249h-15c9.72,0,17.63,7.9,17.63,17.63v1.11c0,9.72-7.91,17.63-17.63,17.63h15     c9.72,0,17.63-7.91,17.63-17.63v-1.11C174.255,26.149,166.345,18.249,156.625,18.249z"/>
		</g>
	</g>
	<g>
		<g>
			<path class="st5" d="M205.415,86.699c-7.02-11.72-19.86-18.99-33.52-18.99h-15c13.66,0,26.5,7.27,33.52,18.99     c5.1,8.51,6.77,18.54,4.7,28.24l-1.22,5.7h15l1.22-5.7C212.185,105.239,210.515,95.209,205.415,86.699z"/>
		</g>
	</g>
	<g>
		<g>
			<polygon class="st5" points="189.795,139.869 178.675,191.939 193.675,191.939 204.795,139.869    "/>
		</g>
	</g>
	<g>
		<g>
			<path class="st5" d="M198.605,194.939h-15c5.14,0,9.32,4.18,9.32,9.33v9.06c0,13.53-11,24.53-24.53,24.53h15     c13.53,0,24.53-11,24.53-24.53v-9.06C207.925,199.119,203.745,194.939,198.605,194.939z"/>
		</g>
	</g>
	<g>
		<g>
			<rect x="223.585" y="123.639" class="st13" width="15" height="13.23"/>
		</g>
	</g>
</g>
</svg>
