<svg id="Layer_3" enable-background="new 0 0 64 64" height="512" viewBox="0 0 64 64" width="512" xmlns="http://www.w3.org/2000/svg"><path d="m51 31h2c1.105 0 2 .895 2 2v2c0 1.105-.895 2-2 2h-2" fill="#738a5a"/><path d="m13 31h-2c-1.105 0-2 .895-2 2v2c0 1.105.895 2 2 2h2" fill="#738a5a"/><path d="m13 40v-13c0-2.761 2.239-5 5-5h28c2.761 0 5 2.239 5 5v13" fill="#9ab878"/><path d="m43 22h-25c-2.761 0-5 2.239-5 5v13h35v-13c0-2.761-2.239-5-5-5z" fill="#cdf5a0"/><path d="m47 36h-30v-8c0-1.105.895-2 2-2h26c1.105 0 2 .895 2 2z" fill="#93a7bf"/><path d="m42 26h-23c-1.105 0-2 .895-2 2v8h27v-8c0-1.105-.895-2-2-2z" fill="#c4deff"/><path d="m7 52h50v4h-50z" fill="#4d5c3c"/><path d="m7 52h47v4h-47z" fill="#738a5a"/><path d="m25 52h14v4h-14z" fill="#979598"/><path d="m25 52h11v4h-11z" fill="#c9c6ca"/><path d="m9 52v-7c0-2.761 2.239-5 5-5h36c2.761 0 5 2.239 5 5v7" fill="#9ab878"/><path d="m47 40h-33c-2.761 0-5 2.239-5 5v7h43v-7c0-2.761-2.239-5-5-5z" fill="#cdf5a0"/><path d="m21 44h22v4h-22z" fill="#aa8058"/><path d="m21 44h19v4h-19z" fill="#e3aa75"/><path d="m21 48h22v4h-22z" fill="#aa8058"/><path d="m21 48h19v4h-19z" fill="#e3aa75"/><circle cx="49" cy="46" fill="#93a7bf" r="2"/><ellipse cx="48" cy="46" fill="#c4deff" rx="1" ry="1.723"/><circle cx="15" cy="46" fill="#93a7bf" r="2"/><ellipse cx="14" cy="46" fill="#c4deff" rx="1" ry="1.723"/><path d="m51 62h-4c-1.105 0-2-.895-2-2v-4h8v4c0 1.105-.895 2-2 2z" fill="#323132"/><path d="m50 60v-4h-5v4c0 1.105.895 2 2 2h1c1.105 0 2-.895 2-2z" fill="#656365"/><path d="m17 62h-4c-1.105 0-2-.895-2-2v-4h8v4c0 1.105-.895 2-2 2z" fill="#323132"/><path d="m16 60v-4h-5v4c0 1.105.895 2 2 2h1c1.105 0 2-.895 2-2z" fill="#656365"/><path d="m2 2h60v4h-60z" fill="#979598"/><path d="m2 2h57v4h-57z" fill="#c9c6ca"/><path d="m17 63h-4c-1.654 0-3-1.346-3-3v-4h2v4c0 .551.449 1 1 1h4c.551 0 1-.449 1-1v-4h2v4c0 1.654-1.346 3-3 3z"/><path d="m51 63h-4c-1.654 0-3-1.346-3-3v-4h2v4c0 .551.449 1 1 1h4c.551 0 1-.449 1-1v-4h2v4c0 1.654-1.346 3-3 3z"/><path d="m57 57h-50c-.552 0-1-.448-1-1v-4c0-.552.448-1 1-1h50c.552 0 1 .448 1 1v4c0 .552-.448 1-1 1zm-49-2h48v-2h-48z"/><path d="m56 52h-2v-7c0-2.206-1.794-4-4-4h-36c-2.206 0-4 1.794-4 4v7h-2v-7c0-3.309 2.691-6 6-6h36c3.309 0 6 2.691 6 6z"/><path d="m52 40h-2v-13c0-2.206-1.794-4-4-4h-28c-2.206 0-4 1.794-4 4v13h-2v-13c0-3.309 2.691-6 6-6h28c3.309 0 6 2.691 6 6z"/><path d="m47 37h-30c-.552 0-1-.448-1-1v-8c0-1.654 1.346-3 3-3h26c1.654 0 3 1.346 3 3v8c0 .552-.448 1-1 1zm-29-2h28v-7c0-.551-.449-1-1-1h-26c-.551 0-1 .449-1 1z"/><path d="m31 26h2v10h-2z"/><path d="m44 52h-2v-7h-20v7h-2v-8c0-.552.448-1 1-1h22c.552 0 1 .448 1 1z"/><path d="m21 47h22v2h-22z"/><path d="m53 38h-2v-2h2c.551 0 1-.449 1-1v-2c0-.551-.449-1-1-1h-2v-2h2c1.654 0 3 1.346 3 3v2c0 1.654-1.346 3-3 3z"/><path d="m13 38h-2c-1.654 0-3-1.346-3-3v-2c0-1.654 1.346-3 3-3h2v2h-2c-.551 0-1 .449-1 1v2c0 .551.449 1 1 1h2z"/><path d="m24 52h2v4h-2z"/><path d="m38 52h2v4h-2z"/><path d="m49 49c-1.654 0-3-1.346-3-3s1.346-3 3-3 3 1.346 3 3-1.346 3-3 3zm0-4c-.551 0-1 .449-1 1s.449 1 1 1 1-.449 1-1-.449-1-1-1z"/><path d="m15 49c-1.654 0-3-1.346-3-3s1.346-3 3-3 3 1.346 3 3-1.346 3-3 3zm0-4c-.551 0-1 .449-1 1s.449 1 1 1 1-.449 1-1-.449-1-1-1z"/><path d="m62 7h-60c-.552 0-1-.448-1-1v-4c0-.552.448-1 1-1h60c.552 0 1 .448 1 1v4c0 .552-.448 1-1 1zm-59-2h58v-2h-58z"/><path d="m3 9h2v20h-2z"/><path d="m3 31h2v2h-2z"/><path d="m7 9h2v12h-2z"/><path d="m7 23h2v2h-2z"/><path d="m59 9h2v20h-2z"/><path d="m59 31h2v2h-2z"/><path d="m55 9h2v12h-2z"/><path d="m55 23h2v2h-2z"/><path d="m11 9h2v10h-2z"/><path d="m19 9h2v10h-2z"/><path d="m23 9h2v10h-2z"/><path d="m27 9h2v10h-2z"/><path d="m35 9h2v10h-2z"/><path d="m39 9h2v10h-2z"/><path d="m43 9h2v10h-2z"/><path d="m51 9h2v10h-2z"/><path d="m31 9h2v10h-2z"/><path d="m47 9h2v2h-2z"/><path d="m47 13h2v2h-2z"/><path d="m47 17h2v2h-2z"/><path d="m15 9h2v2h-2z"/><path d="m15 13h2v2h-2z"/><path d="m15 17h2v2h-2z"/></svg>