<svg height="512" viewBox="0 0 64 64" width="512" xmlns="http://www.w3.org/2000/svg"><path d="m21 11h4v25h-4z" fill="#e0e0e2"/><path d="m22 12h2v24h-2z" fill="#ececee"/><path d="m38.327 30.945-.654-1.89.26-.09a2.988 2.988 0 0 0 2.067-2.845v-3.99h2v3.99a4.979 4.979 0 0 1 -3.428 4.74z" fill="#57565c"/><path d="m36 19h5v4h-5z" fill="#ff5023"/><path d="m55 21v4h-11.28a4.665 4.665 0 0 1 -2.72-.87 4.337 4.337 0 0 1 -1.13-1.13 4.665 4.665 0 0 1 -.87-2.72v-1.28h14a2.006 2.006 0 0 1 2 2z" fill="#c6c5ca"/><path d="m54 30.77v-5.77h-10v5.77c-2.96 2.2-5.15 6.29-5.79 11.18 1.74 1.18 2.71 3.05 5.79 3.05 2.58 0 3.68-1.32 5-2.44a5.669 5.669 0 0 1 4-1.56c3.71 0 4.36 2.72 6.99 3.67-.08-6.07-2.49-11.3-5.99-13.9z" fill="#bdfdff"/><path d="m49 42.56a5.669 5.669 0 0 1 4-1.56c3.71 0 4.36 2.72 6.99 3.67.01.11.01.22.01.33 0 5.61-1.99 10.54-5 13.4v2.6h-12v-2.6c-3.01-2.86-5-7.79-5-13.4a21.8 21.8 0 0 1 .21-3.05c1.74 1.18 2.71 3.05 5.79 3.05 2.58 0 3.68-1.32 5-2.44z" fill="#2488ff"/><path d="m3 3h40v4h-40z" fill="#bdfdff"/><path d="m43 7v4l-15 2-3 1.8-2 1.2-2-1.2-3-1.8-15-2v-4z" fill="#007579"/><path d="m27 36v21a4 4 0 0 1 -8 0v-21z" fill="#007579"/><path d="m3 3h40v1h-40z" fill="#46f8ff"/><path d="m5 8h6v1h-6z" fill="#009698"/><rect fill="#009698" height="10" rx="1" width="2" x="20" y="38"/><g fill="#2488ff"><path d="m31.464 15.464h2v4.001h-2z" transform="matrix(.707 -.707 .707 .707 -2.84 28.074)"/><path d="m31.464 15.464h2v4.001h-2z" transform="matrix(.707 -.707 .707 .707 -2.84 28.074)"/><path d="m30.464 23.536h4.001v2h-4.001z" transform="matrix(.707 -.707 .707 .707 -7.841 30.142)"/><path d="m30.464 23.536h4.001v2h-4.001z" transform="matrix(.707 -.707 .707 .707 -7.841 30.142)"/><path d="m29 20h4v2h-4z"/></g><path d="m48 25h2v30h-2z" fill="#1e81ce"/><path d="m43 36h2v2h-2z" fill="#fff"/><path d="m41 38h2v2h-2z" fill="#fff"/><path d="m43 49h2v2h-2z" fill="#fff"/><rect fill="#d8d7da" height="2" rx="1" width="9" x="45" y="20"/><path d="m44 25h4v1h-4z" fill="#9bfbff"/><path d="m50 25h4v1h-4z" fill="#9bfbff"/><path d="m48 25h2v1h-2z" fill="#1a6fb0"/></svg>